 http://img508.imageshack.us/img508/864/thechroniclesofnarniathu.jpg

Country.......: USA
Genre.........: Fantasy, Family, Adventure
Date release..: 02.12.2010 [World]
Director......: Michael Apted
Writers.......: Christopher Markus, Stephen McFeely
Duration......: 108 min.
More..........: http://www.imdb.com/title/tt0980970
Trailer.......: http://www.imdb.com/video/screenplay/vi1027709209
Trailer.......:

Pilot :
Lucy and Edmund Pevensie return to Narnia with their cousin Eustace where they meet up with Prince Caspian for a trip across the sea aboard the royal ship The Dawn Treader. Along the way they encounter dragons, dwarves, merfolk, and a band of lost warriors before reaching the edge of the world. 

Cats :
Georgie Henley   	 ...  	Lucy Pevensie
Skandar Keynes 	... 	Edmund Pevensie
Ben Barnes 	... 	Caspian
Will Poulter 	... 	Eustace Clarence Scrubb
Gary Sweet 	... 	Drinian
Terry Norris 	... 	Lord Bern
Bruce Spence 	... 	Lord Rhoop
Bille Brown 	... 	Coriakin
Laura Brent 	... 	Liliandil
Colin Moody 	... 	Auctioneer
Tilda Swinton 	... 	The White Witch
Anna Popplewell 	... 	Susan Pevensie
William Moseley 	... 	Peter Pevensie
Shane Rangi 	... 	Tavros
Arthur Angel 	... 	Rhince 

Data Technical :
!!! SAMPLE !!!
Audio.....: Dubbing Polish
Subtitles.: None
Format                           : AVI
Format/Info                      : Audio Video Interleave
File size                        : 1.43 GiB
Duration                         : 1h 48mn
Overall bit rate                 : 1 901 Kbps
Writing application              : VirtualDubMod 1.5.10.2 (build 2540/release)
Writing library                  : VirtualDubMod build 2540/release
Video
ID                               : 0
Format                           : MPEG-4 Visual
Format profile                   : Advanced Simple@L5
Format settings, BVOP            : Yes
Format settings, QPel            : No
Format settings, GMC             : No warppoints
Format settings, Matrix          : Default (MPEG)
Codec ID                         : XVID
Codec ID/Hint                    : XviD
Duration                         : 1h 48mn
Bit rate                         : 1 507 Kbps
Width                            : 720 pixels
Height                           : 400 pixels
Display aspect ratio             : 16:9
Frame rate                       : 25.000 fps
Original frame rate              : 23.976 fps
Color space                      : YUV
Chroma subsampling               : 4:2:0
Bit depth                        : 8 bits
Scan type                        : Progressive
Bits/(Pixel*Frame)               : 0.209
Stream size                      : 1.14 GiB (79%)
Writing library                  : XviD 1.2.1 (UTC 2008-12-04)
Audio
ID                               : 1
Format                           : AC-3
Format/Info                      : Audio Coding 3
Mode extension                   : CM (complete main)
Codec ID                         : 2000
Duration                         : 1h 48mn
Bit rate mode                    : Constant
Bit rate                         : 384 Kbps
Channel(s)                       : 6 channels
Channel positions                : Front: L C R, Side: L R, LFE
Sampling rate                    : 48.0 KHz
Bit depth                        : 16 bits
Stream size                      : 297 MiB (20%)
Alignment                        : Split accross interleaves
Interleave, duration             : 40 ms (1.00 video frame)
Interleave, preload duration     : 500 ms

Screen : 
http://img17.imageshack.us/img17/857/thechroniclesofnarniathl.jpg 
http://img197.imageshack.us/img197/2829/thechroniclesofnarniathh.jpg 
http://img838.imageshack.us/img838/3356/thechroniclesofnarniathi.jpg 
http://img94.imageshack.us/img94/1527/thechroniclesofnarniathk.jpg 
http://img715.imageshack.us/img715/4222/thechroniclesofnarniathro.jpg